<svg id="Layer_1" data-name="Layer 1" xmlns="http://www.w3.org/2000/svg" viewBox="0 0 136.66 136.66"><circle cx="68.33" cy="68.33" r="68.33" style="fill:#4f46e5"/><path d="M68,89.88l1.52-5.41q.93-4.84,2.77-12.78t2.38-9.3a21.36,21.36,0,0,1,.88-2,4.16,4.16,0,0,1,.82-1.06c.32-.3.61-.54.85-.74a2.72,2.72,0,0,1,1.08-.48c.48-.12.84-.22,1.1-.3a5.5,5.5,0,0,1,1.34-.16c.64,0,1.1,0,1.36,0h1.65c0,.13-.29,1-.79,2.7s-.9,3.07-1.24,4.21-.78,2.69-1.34,4.68-1,3.74-1.44,5.23-.8,3-1.2,4.65a32.65,32.65,0,0,0-1.21,6.61q.81-.31,5.53-4.49t9.38-8.89v4.49q-3.69,3.77-5.89,5.84-6,5.78-10.5,7.94c-.13.64-.35,1.67-.64,3.08s-.49,2.32-.58,2.71-.25,1.1-.46,2.14-.36,1.73-.44,2.06-.22.91-.4,1.72-.34,1.45-.46,1.89-.28,1-.46,1.8-.38,1.49-.58,2.18-.42,1.49-.66,2.37q-1.1,3.89-5.91,7.49a16,16,0,0,1-9.6,3.6,3.12,3.12,0,0,1-2.2-.8q-1.73-1.56-1.73-5.57a17.06,17.06,0,0,1,2.33-8,43.64,43.64,0,0,1,4.69-7.15,74.67,74.67,0,0,1,8.53-8.93Zm-10.5,19a23.08,23.08,0,0,0-1.1,3.29,11.13,11.13,0,0,0-.38,2.28,3.82,3.82,0,0,0,.62,1.79,2.07,2.07,0,0,0,1.89,1.06,3.66,3.66,0,0,0,2-.5,5,5,0,0,0,1.42-1.55,21.31,21.31,0,0,0,1.2-2.14,21,21,0,0,0,1.09-2.86c.36-1.18.66-2.21.92-3.09s.52-2,.82-3.38.52-2.45.68-3.23q.64-3.21,1.12-5.89Q59.27,104.66,57.46,108.86ZM84.27,47a2.55,2.55,0,0,1-2.89-2.89,6.12,6.12,0,0,1,1.5-3.84,4.45,4.45,0,0,1,3.57-1.88,4.84,4.84,0,0,1,3.07.8,2.93,2.93,0,0,1,1,2.42,5.26,5.26,0,0,1-1.91,3.51A6,6,0,0,1,84.27,47Z" transform="translate(-11.67 -11.67)" style="fill:#fff"/><path d="M85.67,89.88l1.52-5.41q.93-4.84,2.77-12.78c1.22-5.29,2-8.39,2.38-9.3a18.94,18.94,0,0,1,.88-2A4.16,4.16,0,0,1,94,59.35c.32-.3.6-.54.84-.74A2.72,2.72,0,0,1,96,58.13l1.11-.3a5.5,5.5,0,0,1,1.34-.16c.64,0,1.09,0,1.36,0h1.64q0,.19-.78,2.7c-.49,1.67-.91,3.07-1.24,4.21s-.78,2.69-1.34,4.68S97,73,96.6,74.45s-.8,3-1.2,4.65a33.14,33.14,0,0,0-1.2,6.61q.81-.31,5.53-4.49t9.38-8.89v4.49c-2.46,2.51-4.43,4.46-5.89,5.84q-6,5.78-10.5,7.94c-.14.64-.35,1.67-.64,3.08s-.49,2.32-.58,2.71-.25,1.1-.46,2.14-.36,1.73-.45,2.06-.21.91-.4,1.72-.33,1.45-.46,1.89-.27,1-.46,1.8-.38,1.49-.58,2.18-.42,1.49-.66,2.37Q87,114.44,82.12,118a16,16,0,0,1-9.59,3.6,3.15,3.15,0,0,1-2.21-.8c-1.14-1-1.72-2.9-1.72-5.57a17.06,17.06,0,0,1,2.33-8,43.65,43.65,0,0,1,4.68-7.15,74.64,74.64,0,0,1,8.54-8.93Zm-10.5,19a21.89,21.89,0,0,0-1.1,3.29,11.13,11.13,0,0,0-.38,2.28,3.82,3.82,0,0,0,.62,1.79,2.06,2.06,0,0,0,1.88,1.06,3.67,3.67,0,0,0,2-.5,5.15,5.15,0,0,0,1.42-1.55,21.31,21.31,0,0,0,1.2-2.14,19.87,19.87,0,0,0,1.08-2.86c.36-1.18.67-2.21.92-3.09s.53-2,.83-3.38.52-2.45.68-3.23c.42-2.14.8-4.1,1.12-5.89Q77,104.66,75.17,108.86ZM102,47a2.55,2.55,0,0,1-2.88-2.89,6.12,6.12,0,0,1,1.5-3.84,4.43,4.43,0,0,1,3.57-1.88,4.82,4.82,0,0,1,3.06.8,2.9,2.9,0,0,1,1,2.42,5.24,5.24,0,0,1-1.9,3.51A6,6,0,0,1,102,47Z" transform="translate(-11.67 -11.67)" style="fill:#fff"/></svg>